<svg width="116" height="155" viewBox="0 0 116 155" fill="none" xmlns="http://www.w3.org/2000/svg">
<line x1="108.638" y1="10.1969" x2="107.899" y2="37.2608" stroke="black"/>
<circle cx="109.137" cy="10.1366" r="2.5" transform="rotate(-2.67289 109.137 10.1366)" fill="#EE0202" stroke="black"/>
<path d="M0.499999 46L0.504882 45.6514C0.689804 38.3567 6.66072 32.5 14 32.5L33.5 32.5L33.5 65.5L14 65.5C6.54416 65.5 0.5 59.4558 0.499999 52L0.499999 46Z" fill="white" stroke="black"/>
<rect x="1" y="41" width="2" height="16" fill="black"/>
<path d="M115.5 46L115.495 45.6514C115.31 38.3567 109.339 32.5 102 32.5L82.5 32.5L82.5 65.5L102 65.5C109.456 65.5 115.5 59.4558 115.5 52L115.5 46Z" fill="white" stroke="black"/>
<rect width="2" height="16" transform="matrix(-1 0 0 1 115 41)" fill="black"/>
<g filter="url(#filter0_i_2546_296)">
<path d="M30.518 90.5172C29.9559 95.1785 27.9794 104.734 29.7991 108.404C-5.26784 131.304 20.3934 94.1851 30.518 90.5172Z" fill="white"/>
</g>
<path d="M30.518 90.5172C29.9559 95.1785 27.9794 104.734 29.7991 108.404C-5.26784 131.304 20.3934 94.1851 30.518 90.5172Z" stroke="black"/>
<g filter="url(#filter1_i_2546_296)">
<path d="M78.5459 100.706C77.1671 105.194 75.0937 114.729 71.9406 117.344C94.6898 152.509 86.3093 108.169 78.5459 100.706Z" fill="white"/>
</g>
<path d="M78.5459 100.706C77.1671 105.194 75.0937 114.729 71.9406 117.344C94.6898 152.509 86.3093 108.169 78.5459 100.706Z" stroke="black"/>
<path d="M79.1165 99.8501L76.6374 111.536C73.6759 125.497 59.9581 134.413 45.9978 131.451C32.0375 128.49 23.1212 114.772 26.0828 100.812L28.5619 89.1255L79.1165 99.8501Z" fill="white" stroke="black"/>
<ellipse cx="53.8828" cy="94.2818" rx="26.3399" ry="5.49955" transform="rotate(11.9771 53.8828 94.2818)" fill="black"/>
<path d="M46.2449 137.26C49.9749 138.052 53.2712 139.08 55.5822 140.097C56.7415 140.607 57.628 141.104 58.1958 141.551C58.4804 141.775 58.6627 141.968 58.7628 142.125C58.8616 142.28 58.8553 142.357 58.85 142.382C58.8447 142.407 58.8191 142.48 58.6659 142.582C58.5107 142.685 58.2655 142.787 57.9145 142.877C57.2142 143.054 56.2022 143.149 54.9358 143.144C52.411 143.135 48.9811 142.736 45.2511 141.945C41.5211 141.154 38.2248 140.125 35.9138 139.109C34.7545 138.599 33.868 138.102 33.3002 137.655C33.0156 137.431 32.8333 137.237 32.7332 137.08C32.6345 136.925 32.6407 136.848 32.646 136.823C32.6513 136.798 32.6768 136.725 32.8301 136.624C32.9852 136.521 33.2305 136.418 33.5815 136.329C34.2818 136.151 35.2938 136.057 36.5602 136.061C39.085 136.071 42.5149 136.469 46.2449 137.26Z" fill="white" stroke="black"/>
<path d="M44.5632 145.189C47.0371 145.713 49.2072 146.436 50.7134 147.171C51.4702 147.541 52.034 147.901 52.3842 148.222C52.7621 148.57 52.7645 148.749 52.7575 148.783C52.7505 148.816 52.6758 148.979 52.1888 149.143C51.7382 149.295 51.0767 149.395 50.2352 149.426C48.5602 149.486 46.2837 149.265 43.8098 148.74C41.3357 148.216 39.165 147.493 37.6586 146.758C36.902 146.388 36.339 146.028 35.9888 145.707C35.61 145.359 35.6076 145.179 35.6146 145.146C35.6218 145.113 35.6975 144.95 36.1842 144.786C36.6348 144.634 37.2955 144.533 38.1369 144.503C39.812 144.443 42.0891 144.664 44.5632 145.189Z" fill="white" stroke="black"/>
<path d="M60.2349 85.0447C61.2087 85.012 61.9548 85.9019 61.7525 86.8551L60.5856 92.3557C60.4137 93.1661 59.6174 93.6836 58.807 93.5118L49.1193 91.4566C48.3118 91.2853 47.7944 90.494 47.9616 89.6857L48.6039 86.5825C48.7444 85.9046 49.3304 85.4112 50.0224 85.3879L60.2349 85.0447Z" fill="white" stroke="black"/>
<path d="M58 0.5C85.2861 0.5 107.5 20.3741 107.5 45C107.5 69.6259 85.2861 89.5 58 89.5C30.7139 89.5 8.5 69.6259 8.5 45C8.5 20.3741 30.7139 0.5 58 0.5Z" fill="white" stroke="black"/>
<g filter="url(#filter2_i_2546_296)">
<ellipse cx="57.5" cy="45.1633" rx="42.5" ry="38.1633" fill="black"/>
</g>
<path d="M57.5 7.5C80.7479 7.5 99.4999 24.4116 99.5 45.1631C99.5 65.9147 80.7479 82.8262 57.5 82.8262C34.2521 82.8262 15.5 65.9147 15.5 45.1631C15.5001 24.4116 34.2521 7.5 57.5 7.5Z" stroke="black"/>
<ellipse cx="83.4768" cy="59.9494" rx="5.37456" ry="3.47998" transform="rotate(-47.7477 83.4768 59.9494)" fill="#F2F0F0"/>
<ellipse cx="74.0336" cy="69.1802" rx="2.00955" ry="3.70811" transform="rotate(53.893 74.0336 69.1802)" fill="#F2F0F0"/>
<ellipse cx="37.6473" cy="40.9355" rx="15.5" ry="10.5" transform="rotate(-39.2237 37.6473 40.9355)" fill="white"/>
<rect x="40.7522" y="99.7705" width="24" height="24" rx="12" transform="rotate(11.98 40.7522 99.7705)" fill="black"/>
<circle cx="45.2125" cy="115.846" r="0.4" transform="rotate(11.98 45.2125 115.846)" fill="black" stroke="#00FF43" stroke-width="0.8"/>
<circle cx="46.3624" cy="118.135" r="0.4" transform="rotate(11.98 46.3624 118.135)" fill="black" stroke="#00FF43" stroke-width="0.8"/>
<circle cx="48.1087" cy="111.35" r="0.4" transform="rotate(11.98 48.1087 111.35)" fill="black" stroke="#00FF43" stroke-width="0.8"/>
<circle cx="52.4371" cy="110.224" r="0.4" transform="rotate(11.98 52.4371 110.224)" fill="black" stroke="#00FF43" stroke-width="0.8"/>
<circle cx="56.1361" cy="115.915" r="0.4" transform="rotate(11.98 56.1361 115.915)" fill="black" stroke="#00FF43" stroke-width="0.8"/>
<path d="M45.2388 115.774L42.6777 119.602L45.7751 118.369M56.7438 115.942L53.2222 115.195M53.2222 115.195L54.4163 122.093L49.3773 116.935L45.9834 113.659L53.2222 115.195ZM48.1794 111.378L51.6606 106.174L52.1651 109.088L52.3721 110.284" stroke="#00FF43" stroke-width="0.8"/>
<defs>
<filter id="filter0_i_2546_296" x="11.4453" y="89.7704" width="19.6663" height="26.548" filterUnits="userSpaceOnUse" color-interpolation-filters="sRGB">
<feFlood flood-opacity="0" result="BackgroundImageFix"/>
<feBlend mode="normal" in="SourceGraphic" in2="BackgroundImageFix" result="shape"/>
<feColorMatrix in="SourceAlpha" type="matrix" values="0 0 0 0 0 0 0 0 0 0 0 0 0 0 0 0 0 0 127 0" result="hardAlpha"/>
<feOffset dy="4"/>
<feComposite in2="hardAlpha" operator="arithmetic" k2="-1" k3="1"/>
<feColorMatrix type="matrix" values="0 0 0 0 0 0 0 0 0 0 0 0 0 0 0 0 0 0 1 0"/>
<feBlend mode="normal" in2="shape" result="effect1_innerShadow_2546_296"/>
</filter>
<filter id="filter1_i_2546_296" x="71.2795" y="99.7823" width="15.9155" height="31.4563" filterUnits="userSpaceOnUse" color-interpolation-filters="sRGB">
<feFlood flood-opacity="0" result="BackgroundImageFix"/>
<feBlend mode="normal" in="SourceGraphic" in2="BackgroundImageFix" result="shape"/>
<feColorMatrix in="SourceAlpha" type="matrix" values="0 0 0 0 0 0 0 0 0 0 0 0 0 0 0 0 0 0 127 0" result="hardAlpha"/>
<feOffset dx="-1" dy="9"/>
<feComposite in2="hardAlpha" operator="arithmetic" k2="-1" k3="1"/>
<feColorMatrix type="matrix" values="0 0 0 0 0 0 0 0 0 0 0 0 0 0 0 0 0 0 1 0"/>
<feBlend mode="normal" in2="shape" result="effect1_innerShadow_2546_296"/>
</filter>
<filter id="filter2_i_2546_296" x="15" y="7" width="85" height="76.3265" filterUnits="userSpaceOnUse" color-interpolation-filters="sRGB">
<feFlood flood-opacity="0" result="BackgroundImageFix"/>
<feBlend mode="normal" in="SourceGraphic" in2="BackgroundImageFix" result="shape"/>
<feColorMatrix in="SourceAlpha" type="matrix" values="0 0 0 0 0 0 0 0 0 0 0 0 0 0 0 0 0 0 127 0" result="hardAlpha"/>
<feOffset dy="13"/>
<feComposite in2="hardAlpha" operator="arithmetic" k2="-1" k3="1"/>
<feColorMatrix type="matrix" values="0 0 0 0 1 0 0 0 0 1 0 0 0 0 1 0 0 0 0.25 0"/>
<feBlend mode="normal" in2="shape" result="effect1_innerShadow_2546_296"/>
</filter>
</defs>
</svg>
